<svg width="16" height="21" viewBox="0 0 16 21" fill="none" xmlns="http://www.w3.org/2000/svg">
<path fill-rule="evenodd" clip-rule="evenodd" d="M5 1.00146L6 0.00146484H10L11 1.00146H16V3.00146H15V18.0015C15 18.5237 14.8087 19.0561 14.4316 19.4331C14.0546 19.8101 13.5222 20.0015 13 20.0015H3C2.47778 20.0015 1.94539 19.8101 1.56836 19.4331C1.19133 19.0561 1 18.5237 1 18.0015V3.00146H0V1.00146H5ZM13 3.00146H3V18.0015H13V3.00146ZM5 5.00146V16.0015H7V5.00146H5ZM9 16.0015V5.00146H11V16.0015H9Z" fill="#0C0C0C"/>
</svg>